<svg xmlns="http://www.w3.org/2000/svg" viewBox="0 0 24 24" fill="#222222">
  <path d="M12 .5a12 12 0 0 0-3.79 23.39c.6.11.82-.26.82-.58v-2.02c-3.34.73-4.04-1.42-4.04-1.42-.55-1.38-1.33-1.75-1.33-1.75-1.09-.74.08-.73.08-.73 1.2.09 1.84 1.24 1.84 1.24 1.08 1.84 2.83 1.31 3.52 1 .11-.78.42-1.31.76-1.61-2.67-.31-5.47-1.34-5.47-5.95 0-1.31.47-2.39 1.23-3.23-.12-.3-.53-1.55.12-3.23 0 0 1-.32 3.3 1.23a11.5 11.5 0 0 1 6 0c2.3-1.55 3.29-1.23 3.29-1.23.66 1.68.25 2.93.13 3.23.77.84 1.23 1.92 1.23 3.23 0 4.62-2.8 5.63-5.48 5.94.43.37.81 1.1.81 2.22v3.29c0 .32.22.7.83.58A12 12 0 0 0 12 .5Z"/>
</svg>
